<svg width="837" height="695" viewBox="0 0 837 695" fill="none" xmlns="http://www.w3.org/2000/svg">
<circle cx="627" cy="480" r="51" fill="#C8782E"/>
<g clip-path="url(#clip0)">
<path d="M483.55 227.55H462C411.32 227.55 385.93 166.28 421.77 130.44L437 115.19C442.022 109.798 444.755 102.667 444.623 95.3001C444.492 87.9329 441.506 80.9043 436.296 75.6947C431.085 70.4851 424.055 67.5013 416.688 67.3717C409.321 67.2421 402.191 69.9769 396.8 75L381.56 90.22C345.72 126.05 284.45 100.67 284.45 49.99V28.44C284.45 20.8946 281.453 13.6582 276.117 8.3228C270.782 2.98739 263.546 -0.0100098 256 -0.0100098C248.455 -0.0100098 241.218 2.98739 235.883 8.3228C230.548 13.6582 227.55 20.8946 227.55 28.44V50C227.55 100.68 166.28 126.06 130.44 90.23L115.2 75C109.809 69.9769 102.679 67.2421 95.3121 67.3717C87.9449 67.5013 80.9156 70.4851 75.7047 75.6947C70.4938 80.9043 67.5083 87.9329 67.3768 95.3001C67.2454 102.667 69.9784 109.798 75.0002 115.19L90.2502 130.44C126.09 166.28 100.7 227.55 50.0202 227.55H28.4502C24.6698 227.479 20.9133 228.162 17.4001 229.56C13.8869 230.958 10.6876 233.042 7.98907 235.69C5.29056 238.338 3.14702 241.498 1.68374 244.985C0.220463 248.471 -0.533203 252.214 -0.533203 255.995C-0.533203 259.776 0.220463 263.519 1.68374 267.005C3.14702 270.492 5.29056 273.652 7.98907 276.3C10.6876 278.948 13.8869 281.032 17.4001 282.43C20.9133 283.828 24.6698 284.511 28.4502 284.44H50.0002C100.68 284.44 126.07 345.72 90.2302 381.56L75.0002 396.8C70.0277 402.202 67.3359 409.316 67.4877 416.657C67.6394 423.997 70.6229 430.994 75.8144 436.186C81.0058 441.377 88.0033 444.361 95.3436 444.513C102.684 444.664 109.799 441.972 115.2 437L130.44 421.75C166.28 385.91 227.55 411.3 227.55 461.98V483.52C227.55 491.065 230.548 498.302 235.883 503.637C241.218 508.973 248.455 511.97 256 511.97C263.546 511.97 270.782 508.973 276.117 503.637C281.453 498.302 284.45 491.065 284.45 483.52V462C284.45 411.32 345.72 385.93 381.56 421.77L396.8 437C402.202 441.972 409.316 444.664 416.657 444.513C423.997 444.361 430.994 441.377 436.186 436.186C441.377 430.994 444.361 423.997 444.513 416.657C444.664 409.316 441.973 402.202 437 396.8L421.75 381.56C385.91 345.72 411.3 284.44 461.98 284.44H483.52C487.3 284.511 491.057 283.828 494.57 282.43C498.083 281.032 501.283 278.948 503.981 276.3C506.68 273.652 508.823 270.492 510.287 267.005C511.75 263.519 512.504 259.776 512.504 255.995C512.504 252.214 511.75 248.471 510.287 244.985C508.823 241.498 506.68 238.338 503.981 235.69C501.283 233.042 498.083 230.958 494.57 229.56C491.057 228.162 487.3 227.479 483.52 227.55H483.55ZM224 272C214.507 272 205.226 269.185 197.333 263.911C189.439 258.636 183.287 251.14 179.654 242.369C176.021 233.598 175.07 223.947 176.922 214.636C178.775 205.325 183.346 196.772 190.059 190.059C196.772 183.346 205.325 178.774 214.636 176.922C223.947 175.07 233.598 176.021 242.369 179.654C251.14 183.287 258.636 189.439 263.911 197.333C269.185 205.226 272 214.506 272 224C272 236.73 266.943 248.939 257.941 257.941C248.94 266.943 236.731 272 224 272V272ZM304 328C299.253 328 294.613 326.592 290.666 323.955C286.72 321.318 283.644 317.57 281.827 313.184C280.011 308.799 279.535 303.973 280.461 299.318C281.387 294.662 283.673 290.386 287.03 287.029C290.386 283.673 294.662 281.387 299.318 280.461C303.974 279.535 308.799 280.01 313.185 281.827C317.57 283.643 321.318 286.72 323.955 290.666C326.593 294.613 328 299.253 328 304C328 310.365 325.472 316.47 320.971 320.971C316.47 325.471 310.365 328 304 328Z" fill="#BD561C" fill-opacity="0.8"/>
<circle cx="222" cy="223" r="51" fill="#BB5A00"/>
</g>
<path d="M816.345 492.232H800.971C764.816 492.232 746.703 448.551 772.271 423L783.136 412.128C786.718 408.284 788.668 403.201 788.574 397.948C788.481 392.696 786.351 387.685 782.633 383.971C778.916 380.257 773.901 378.13 768.645 378.038C763.39 377.945 758.303 379.895 754.457 383.476L743.585 394.327C718.017 419.871 674.307 401.777 674.307 365.646V350.283C674.307 344.903 672.169 339.744 668.362 335.941C664.556 332.137 659.394 330 654.011 330C648.628 330 643.465 332.137 639.659 335.941C635.853 339.744 633.714 344.903 633.714 350.283V365.653C633.714 401.784 590.005 419.878 564.436 394.334L553.564 383.476C549.718 379.895 544.632 377.945 539.376 378.038C534.12 378.13 529.105 380.257 525.388 383.971C521.671 387.685 519.541 392.696 519.447 397.948C519.353 403.201 521.303 408.284 524.885 412.128L535.765 423C561.333 448.551 543.22 492.232 507.065 492.232H491.677C488.98 492.181 486.3 492.668 483.794 493.665C481.287 494.661 479.005 496.147 477.08 498.035C475.155 499.923 473.625 502.176 472.582 504.661C471.538 507.147 471 509.815 471 512.511C471 515.206 471.538 517.875 472.582 520.36C473.625 522.846 475.155 525.098 477.08 526.986C479.005 528.875 481.287 530.36 483.794 531.357C486.3 532.353 488.98 532.84 491.677 532.79H507.05C543.206 532.79 561.319 576.477 535.751 602.028L524.885 612.893C521.338 616.744 519.418 621.816 519.526 627.049C519.634 632.282 521.763 637.271 525.466 640.972C529.17 644.673 534.162 646.8 539.398 646.908C544.635 647.016 549.711 645.097 553.564 641.553L564.436 630.68C590.005 605.129 633.714 623.231 633.714 659.361V674.717C633.714 680.097 635.853 685.256 639.659 689.059C643.465 692.863 648.628 695 654.011 695C659.394 695 664.556 692.863 668.362 689.059C672.169 685.256 674.307 680.097 674.307 674.717V659.375C674.307 623.245 718.017 605.144 743.585 630.695L754.457 641.553C758.311 645.097 763.386 647.016 768.623 646.908C773.86 646.8 778.851 644.673 782.555 640.972C786.259 637.271 788.387 632.282 788.495 627.049C788.604 621.816 786.683 616.744 783.136 612.893L772.257 602.028C746.688 576.477 764.802 532.79 800.957 532.79H816.323C819.02 532.84 821.7 532.353 824.206 531.357C826.713 530.36 828.995 528.875 830.92 526.986C832.845 525.098 834.374 522.846 835.418 520.36C836.462 517.875 837 515.206 837 512.511C837 509.815 836.462 507.147 835.418 504.661C834.374 502.176 832.845 499.923 830.92 498.035C828.995 496.147 826.713 494.661 824.206 493.665C821.7 492.668 819.02 492.181 816.323 492.232H816.345ZM631.182 523.921C624.409 523.921 617.789 521.914 612.157 518.154C606.526 514.394 602.137 509.049 599.545 502.796C596.954 496.543 596.275 489.663 597.597 483.025C598.918 476.387 602.179 470.289 606.968 465.504C611.757 460.718 617.859 457.459 624.501 456.138C631.144 454.818 638.029 455.496 644.286 458.086C650.543 460.676 655.891 465.062 659.654 470.689C663.417 476.317 665.425 482.933 665.425 489.701C665.425 498.777 661.817 507.481 655.395 513.898C648.974 520.316 640.264 523.921 631.182 523.921V523.921ZM688.254 563.844C684.868 563.844 681.557 562.841 678.742 560.961C675.926 559.081 673.731 556.409 672.436 553.282C671.14 550.156 670.801 546.715 671.461 543.396C672.122 540.077 673.753 537.029 676.147 534.636C678.542 532.243 681.592 530.613 684.914 529.953C688.235 529.293 691.677 529.632 694.806 530.927C697.935 532.222 700.609 534.415 702.49 537.229C704.371 540.042 705.375 543.35 705.375 546.734C705.375 551.272 703.572 555.624 700.361 558.833C697.15 562.042 692.795 563.844 688.254 563.844Z" fill="#C05C00"/>
<circle cx="696" cy="554" r="42" fill="#C05C00"/>
<defs>
<clipPath id="clip0">
<rect width="512" height="512" fill="white"/>
</clipPath>
</defs>
</svg>
