<svg width="2249" height="836" viewBox="0 0 2249 836" fill="none" xmlns="http://www.w3.org/2000/svg">
<g clip-path="url(#clip0)">
<path d="M1160.99 276.62L1267.98 269.705C1270.42 287.197 1274.89 300.214 1282.22 309.571C1294.01 324.215 1310.28 331.538 1331.84 331.538C1347.71 331.538 1360.32 327.876 1368.86 320.147C1377 314.045 1381.88 304.282 1381.88 294.112C1381.88 284.349 1377.41 274.993 1369.68 268.891C1361.54 261.569 1342.42 254.247 1312.32 247.738C1263.1 236.755 1227.7 222.11 1206.96 203.397C1186.21 185.905 1174.41 160.277 1175.23 133.022C1175.23 114.309 1180.92 95.5969 1191.5 80.1387C1203.7 62.6466 1220.38 48.8156 1240.32 41.0865C1261.88 31.7302 1291.98 26.8487 1329.81 26.8487C1376.18 26.8487 1411.58 35.3914 1435.98 52.8835C1460.39 69.9689 1475.04 97.6309 1479.51 135.463L1373.74 141.565C1370.9 125.293 1365.2 113.496 1355.84 105.767C1346.49 98.0377 1334.28 94.3765 1318.42 94.3765C1305.4 94.3765 1295.64 97.2241 1289.13 102.512C1283.03 107.394 1278.96 114.716 1279.37 122.852C1279.37 128.954 1282.62 134.649 1287.5 138.31C1292.79 143.192 1305.4 147.667 1325.34 151.734C1374.56 162.311 1409.54 172.888 1431.1 183.871C1452.66 194.855 1468.12 208.279 1477.48 224.144C1487.24 240.416 1492.12 259.128 1491.71 278.247C1491.71 301.028 1485.21 323.808 1472.19 342.928C1458.76 362.861 1440.05 378.319 1418.08 387.675C1394.9 397.845 1365.61 403.133 1330.62 403.133C1268.79 403.133 1226.08 391.336 1202.08 367.335C1178.08 343.335 1163.84 313.232 1160.99 276.62ZM25.628 397.031V33.3574H213.16C247.738 33.3574 274.586 36.205 292.892 42.3069C310.791 48.002 326.656 59.799 337.232 75.664C349.029 93.1561 354.725 113.496 354.318 134.649C355.538 170.447 337.232 204.618 305.909 222.517C293.705 229.432 280.281 234.314 266.45 236.754C276.62 239.602 286.79 244.484 295.739 250.179C302.655 255.874 308.35 262.383 313.638 269.298C319.74 276.214 325.029 283.943 329.503 292.079L384.014 397.438H256.28L196.075 285.57C188.346 271.332 181.837 261.976 175.735 257.501C167.599 251.806 157.836 248.958 148.073 248.958H138.31V396.625H25.628V397.031ZM138.31 180.617H185.905C196.075 179.803 205.838 178.176 215.601 175.735C222.923 174.515 229.432 170.447 233.907 164.345C244.89 149.701 243.263 128.954 229.839 116.343C222.516 110.242 208.279 106.987 187.939 106.987H138.31V180.617ZM0 708.636L106.987 701.72C109.428 719.212 113.902 732.23 121.225 741.586C132.615 756.231 149.293 763.96 170.854 763.96C186.719 763.96 199.329 760.299 207.872 752.569C216.008 746.061 220.889 736.705 220.889 726.535C220.889 716.772 216.414 707.415 208.685 701.313C200.55 693.991 181.43 686.669 150.921 680.16C101.699 669.177 66.3074 654.532 45.5609 635.82C24.8144 618.327 13.0174 592.699 13.831 565.444C13.831 546.732 19.5261 528.019 30.1028 512.561C42.3066 495.069 58.9852 481.238 78.9181 473.509C100.478 464.152 130.581 459.271 168.413 459.271C214.787 459.271 250.178 467.814 274.586 485.306C298.994 502.798 313.232 530.053 317.706 567.885L211.94 573.987C209.092 557.715 203.397 545.918 194.041 538.189C185.091 530.46 172.481 526.799 156.616 527.206C143.598 527.206 133.835 530.053 127.327 535.748C120.818 540.63 117.157 547.952 117.564 556.088C117.564 562.19 120.818 567.885 125.699 571.546C130.988 576.428 143.598 580.902 163.531 584.97C212.753 595.547 247.738 606.124 269.298 617.107C290.858 628.09 306.316 641.515 315.672 657.38C325.435 673.651 330.317 692.364 330.317 711.076C330.317 733.857 323.401 756.231 310.791 775.35C297.367 795.283 278.654 810.741 256.687 820.097C233.5 830.267 204.211 835.555 169.226 835.555C107.394 835.555 64.6803 823.758 40.6794 799.758C16.6786 775.35 3.25435 745.247 0 708.636H0Z" fill="#BB7559"/>
<path d="M541.036 680.159L639.48 709.855C634.192 734.67 623.208 758.264 608.157 779.01C594.326 797.316 576.02 811.554 555.274 820.91C534.121 830.267 507.272 835.148 474.729 835.148C435.27 835.148 402.726 829.453 377.912 818.063C352.69 806.672 331.13 786.333 312.825 757.45C294.519 728.568 285.569 691.55 285.569 646.396C285.569 586.19 301.434 539.816 333.571 507.679C365.708 475.542 410.862 459.27 469.44 459.27C515.408 459.27 551.206 468.627 577.648 486.932C603.682 505.645 623.208 534.12 636.226 572.359L536.968 594.326C534.527 585.783 530.866 577.241 525.985 569.918C519.883 561.376 512.154 554.867 502.797 549.985C493.441 545.104 482.865 543.07 472.288 543.07C446.66 543.07 427.134 553.24 413.71 573.986C403.54 589.038 398.251 613.038 398.251 645.582C398.251 685.855 404.353 713.517 416.557 728.568C428.761 743.619 445.846 750.942 468.22 750.942C489.78 750.942 506.052 744.84 517.035 733.043C528.019 720.432 536.155 702.94 541.036 680.159ZM770.875 465.372H883.15V592.699H1006V465.372H1119.09V829.046H1006V681.787H883.15V829.046H770.875V465.372Z" fill="#BB7559"/>
<path d="M1103.63 647.209C1103.63 587.817 1120.31 541.442 1153.26 508.492C1186.21 475.542 1232.59 458.863 1291.57 458.863C1352.18 458.863 1398.56 475.135 1431.51 507.679C1464.46 540.222 1480.73 585.783 1480.73 644.361C1480.73 687.075 1473.41 721.652 1459.17 748.908C1445.34 775.756 1423.78 797.723 1397.34 812.367C1370.08 827.419 1336.32 835.148 1296.05 835.148C1254.96 835.148 1221.2 828.639 1194.35 815.622C1166.69 801.791 1143.91 780.231 1128.85 753.789C1112.18 725.313 1103.63 689.922 1103.63 647.209ZM1215.91 647.616C1215.91 684.227 1222.82 710.669 1236.25 726.941C1249.67 742.806 1268.38 750.941 1291.98 750.941C1315.98 750.941 1334.69 743.212 1348.12 727.347C1361.54 711.482 1368.05 683.414 1368.05 642.734C1368.05 608.564 1361.13 583.342 1347.3 567.884C1333.47 552.019 1314.76 544.29 1291.16 544.29C1270.42 543.476 1250.49 552.426 1236.65 568.291C1222.82 584.156 1215.91 610.597 1215.91 647.616ZM1595.85 647.209C1595.85 587.817 1612.53 541.442 1645.48 508.492C1678.43 475.542 1724.81 458.863 1783.79 458.863C1844.41 458.863 1891.19 475.135 1923.73 507.679C1956.27 540.222 1972.95 585.783 1972.95 644.361C1972.95 687.075 1965.63 721.652 1951.39 748.908C1937.56 775.756 1916 797.723 1889.56 812.367C1862.3 827.419 1828.54 835.148 1788.27 835.148C1747.18 835.148 1713.42 828.639 1686.57 815.622C1658.91 801.791 1636.13 780.231 1621.08 753.789C1604.4 725.313 1595.85 689.922 1595.85 647.209ZM1708.13 647.616C1708.13 684.227 1715.04 710.669 1728.47 726.941C1741.89 742.806 1760.61 750.941 1784.2 750.941C1808.2 750.941 1826.91 743.212 1840.34 727.347C1853.76 711.482 1860.27 683.414 1860.27 642.734C1860.27 608.564 1853.35 583.342 1839.52 567.884C1825.69 552.019 1806.98 544.29 1783.39 544.29C1762.64 543.476 1742.3 552.426 1728.88 568.291C1715.04 584.156 1708.13 610.597 1708.13 647.616Z" fill="#BB7559"/>
<path d="M1961.15 465.372H2073.43V739.551H2248.76V829.046H1960.75V465.372H1961.15Z" fill="#BB7559"/>
<path d="M1926.33 90.7724C2002.36 191.666 1964.8 348.603 1841.86 441.249C1718.92 533.894 1557.71 526.749 1481.68 425.855C1405.65 324.961 1443.21 168.024 1566.15 75.3792C1689.09 -17.2661 1850.3 -10.1215 1926.33 90.7724Z" stroke="#BB7559" stroke-width="2"/>
<path d="M1582.43 231.059L1623.11 202.584L1673.14 273.772C1681.69 285.163 1688.2 297.367 1693.08 310.791C1695.92 320.961 1695.11 331.944 1691.04 341.707C1685.76 353.911 1677.21 364.081 1665.82 371.403C1652.4 380.759 1641.01 386.048 1631.24 387.675C1621.89 389.302 1612.13 387.675 1603.18 383.607C1593.41 378.725 1584.87 371.81 1578.36 362.86L1613.35 330.317C1616.19 334.792 1619.85 338.86 1623.92 342.114C1626.77 344.148 1630.02 345.368 1633.69 345.368C1636.53 345.368 1639.38 344.148 1641.41 342.521C1645.48 340.08 1648.33 335.198 1647.92 330.317C1646.7 323.401 1643.86 316.486 1639.38 311.198L1582.43 231.059ZM1704.47 276.213L1741.49 246.924C1745.55 251.806 1750.84 255.467 1756.54 257.501C1764.67 259.941 1773.22 258.314 1780.13 253.026C1785.01 249.772 1789.08 245.297 1790.71 239.602C1793.15 232.279 1789.08 224.144 1781.76 221.703C1780.54 221.296 1779.32 220.889 1778.1 220.889C1773.22 220.482 1764.67 222.516 1752.06 227.805C1731.32 236.347 1715.04 239.602 1702.84 238.381C1691.04 237.161 1680.06 231.059 1673.55 220.889C1668.67 213.974 1666.23 205.838 1665.82 197.702C1665.82 188.346 1668.26 178.989 1673.55 171.26C1681.28 160.277 1690.64 150.921 1702.03 143.598C1719.11 131.801 1734.16 126.106 1747.18 126.106C1760.2 126.106 1772.4 132.208 1783.79 144.819L1747.18 173.701C1739.86 164.345 1726.03 162.311 1716.67 169.633L1715.45 170.854C1711.38 173.294 1708.54 176.955 1706.91 181.43C1705.69 184.685 1706.5 188.346 1708.54 191.193C1710.16 193.227 1712.6 194.854 1715.45 194.854C1718.71 195.261 1724.4 193.634 1732.54 189.973C1752.88 181.43 1768.33 176.549 1778.91 174.922C1787.86 173.294 1797.22 174.108 1805.76 177.769C1813.49 181.023 1820 186.719 1824.47 193.634C1830.17 201.77 1833.42 211.533 1833.83 221.703C1834.24 232.279 1831.39 242.449 1825.69 251.399C1818.37 262.382 1809.01 271.739 1798.03 279.061C1775.66 294.519 1757.35 301.028 1742.71 298.587C1726.84 296.146 1713.82 288.01 1704.47 276.213Z" fill="#BB7559"/>
</g>
<defs>
<clipPath id="clip0">
<rect width="2248.76" height="835.148" fill="white"/>
</clipPath>
</defs>
</svg>
